<svg viewBox="0 0 420 200" version="1.1" prefix="rdf: http://www.w3.org/1999/02/22-rdf-syntax-ns# rdfs: http://www.w3.org/2000/01/rdf-schema# xsd: http://www.w3.org/2001/XMLSchema# schema: https://schema.org/" xmlns="http://www.w3.org/2000/svg" xml:lang="en" about="" rel="schema:isPartOf" resource="https://www.w3.org/TR/ldn/"><g about="" rel="schema:hasPart" typeof="schema:ImageObject"><metadata about=""><span rel="schema:license" resource="https://creativecommons.org/licenses/by/4.0/"></span><span rel="schema:creator" resource="http://csarven.ca/#i"></span></metadata><title about="" property="schema:name">Linked Data Notifications</title><style>.relation{font-size:12px;font-family:monospace;}.predicate{font-style:italic;}.actor{font-size:20px;font-family:sans-serif;}</style><a about="#target" property="schema:name" rel="rdfs:isDefinedBy" resource="https://www.w3.org/TR/ldn/#discovery" href="https://www.w3.org/TR/ldn/#discovery" target="_top"><text class="actor" x="175" y="19">Target</text></a><a about="#sending" property="schema:name" rel="rdfs:isDefinedBy" resource="https://www.w3.org/TR/ldn/#sending" href="https://www.w3.org/TR/ldn/#sending" target="_top"><text class="actor" x="6" y="68">Sender</text></a><a about="#consuming" property="schema:name" rel="rdfs:isDefinedBy" resource="https://www.w3.org/TR/ldn/#consuming" href="https://www.w3.org/TR/ldn/#consuming" target="_top"><text class="actor" x="321" y="70">Consumer</text></a><a about="#receiving" property="schema:name" rel="rdfs:isDefinedBy" resource="https://www.w3.org/TR/ldn/#receiving" href="https://www.w3.org/TR/ldn/#receiving" target="_top"><text class="actor" x="62" y="153">Receiver</text></a><a about="#get" property="schema:name" rel="rdfs:isDefinedBy" resource="https://tools.ietf.org/html/rfc7231#section-4.3.1" href="https://tools.ietf.org/html/rfc7231#section-4.3.1" target="_top"><text class="relation http" x="86" y="34">GET</text></a><a about="#head" property="schema:name" rel="rdfs:isDefinedBy" resource="https://tools.ietf.org/html/rfc7231#section-4.3.2" href="https://tools.ietf.org/html/rfc7231#section-4.3.2" target="_top"><text class="relation http" x="105" y="50">HEAD</text></a><a href="https://tools.ietf.org/html/rfc7231#section-4.3.1" target="_top"><text class="relation http" x="291" y="34">GET</text></a><a href="https://tools.ietf.org/html/rfc7231#section-4.3.2" target="_top"><text class="relation http" x="264" y="50">HEAD</text></a><a about="#post" property="schema:name" rel="rdfs:isDefinedBy" resource="https://tools.ietf.org/html/rfc7231#section-4.3.3" href="https://tools.ietf.org/html/rfc7231#section-4.3.3" target="_top"><text class="relation http" x="67" y="92">POST</text></a><a href="https://tools.ietf.org/html/rfc7231#section-4.3.1" target="_top"><text class="relation http" x="305" y="94">GET</text></a><a about="#ldp-inbox" property="schema:name" rel="rdfs:isDefinedBy" resource="https://www.w3.org/ns/ldp#inbox" href="https://www.w3.org/ns/ldp#inbox" target="_top"><text class="relation predicate" x="171" y="67">ldp:inbox</text></a><a about="#ldp-contains" property="schema:name" rel="rdfs:isDefinedBy" resource="https://www.w3.org/ns/ldp#contains" href="https://www.w3.org/ns/ldp#contains" target="_top"><text class="relation predicate" x="171" y="153">ldp:contains</text></a><path d="M159.38 106.952a.347.347 0 0 0-.36.36v14.416c0 .208.151.36.36.36h14.416a.347.347 0 0 0 .36-.36v-14.417a.347.347 0 0 0-.36-.359H159.38zm1.53 3.78h11.337v5.668h-1.89l-1.89 1.89h-3.778l-1.89-1.89h-1.89v-5.669z"/><a about="#discovery" property="schema:name" rel="rdfs:isDefinedBy" resource="https://www.w3.org/TR/ldn/#discovery" href="https://www.w3.org/TR/ldn/#discovery" target="_top"><text class="actor" x="180" y="122">Inbox</text></a><path d="M159.018 5.559v14.023h12.27V12.57h-7.01V5.56h-5.26zm7.012 0v5.258h5.259L166.03 5.56zm-5.259 3.505h1.753v1.753h-1.753V9.064zm0 3.506h1.753v1.753h-1.753V12.57zm0 3.506h7.012v1.753h-7.012v-1.753zM159.02 174.407v14.01h12.257v-7.006h-7.004v-7.004h-5.254zm7.004 0v5.253h5.253l-5.253-5.253z"/><a about="#notification" property="schema:name" rel="rdfs:isDefinedBy" resource="https://www.w3.org/TR/ldn/#introduction" href="https://www.w3.org/TR/ldn/#introduction" target="_top"><text class="actor" x="176" y="189">Notification</text></a><path d="M80.094 56.246c26.774-25.646 73.45-42.406 73.45-42.406M317.544 56.681c-26.774-25.646-73.449-42.406-73.449-42.406M81.48 66.868c26.774 25.646 73.45 42.406 73.45 42.406" fill="none" stroke="#000" stroke-width="1"/><path d="M317.898 70.757c-26.774 25.646-73.45 42.406-73.45 42.406" fill="none" stroke="#000" stroke-width="1"/><path d="M334.61 79.188c-15.293 56.301-41.953 93.091-41.953 93.091" fill="none" stroke="#000" stroke-width="1"/><path fill="none" stroke="#000" stroke-width="1" stroke-dasharray="3,6" d="M151.06 98.447h141V194.5h-141z"/><path d="M164.06 24.117c-7.82 39.778 0 76.156 0 76.156" fill="none" stroke="#000" stroke-width="1"/><path d="M149.901 17.027l5.702-2.075-5.702-2.076zM161.574 98.406l3.523 4.94.476-6.05zM243.698 111.024l-4.06 4.508 6.008-.843zM150.198 110.4l6.065.165-4.54-4.026zM245.493 16.762l-5.702-2.075 5.702-2.076zM291.493 170.237l-3.066 5.236 5.715-2.04z" stroke="#000" stroke-width="1"/><path d="M164.827 124.083c-4.73 24.06 0 46.063 0 46.063" fill="none" stroke="#000" stroke-width="1"/><path d="M161.767 165.375l3.524 4.94.476-6.05z" stroke="#000" stroke-width="1"/></g></svg>