<svg xmlns="http://www.w3.org/2000/svg" viewBox="0 0 425 200"><title>Linked Data Notifications</title><text style="line-height:125%" x="87.658" y="85.842" font-weight="400" font-size="20" font-family="sans-serif" letter-spacing="0" word-spacing="0" transform="translate(-83.977 -17.786)"><tspan x="87.658" y="85.842" style="-inkscape-font-specification:erif" font-family="erif">Sender</tspan></text><text style="line-height:125%" x="151.081" y="110.38" font-weight="400" font-size="20" font-family="sans-serif" letter-spacing="0" word-spacing="0" transform="translate(-83.977 -17.786)"><tspan x="151.081" y="110.38" style="-inkscape-font-specification:monospace" font-size="12.5" font-family="monospace">POST</tspan></text><text style="line-height:125%" x="252.571" y="82.934" font-weight="400" font-size="20" font-family="sans-serif" letter-spacing="0" word-spacing="0" transform="translate(-83.977 -17.786)"><tspan x="252.571" y="82.934" style="-inkscape-font-specification:monospace" font-style="italic" font-size="15" font-family="monospace">ldp:inbox</tspan></text><text style="line-height:125%" x="255.961" y="171.273" font-weight="400" font-size="20" font-family="sans-serif" letter-spacing="0" word-spacing="0" transform="translate(-83.977 -17.786)"><tspan x="255.961" y="171.273" style="-inkscape-font-specification:monospace" font-style="italic" font-size="15" font-family="monospace">ldp:contains</tspan></text><text style="line-height:125%" x="257.261" y="37.366" font-weight="400" font-size="20" font-family="sans-serif" letter-spacing="0" word-spacing="0" transform="translate(-83.977 -17.786)"><tspan x="257.261" y="37.366">Target</tspan></text><text style="line-height:125%" x="404.192" y="85.814" font-weight="400" font-size="20" font-family="sans-serif" letter-spacing="0" word-spacing="0" transform="translate(-83.977 -17.786)"><tspan x="404.192" y="85.814">Consumer</tspan></text><text style="line-height:125%" x="145.615" y="171.327" font-weight="400" font-size="20" font-family="sans-serif" letter-spacing="0" word-spacing="0" transform="translate(-83.977 -17.786)"><tspan x="145.615" y="171.327">Receiver</tspan></text><path d="M159.018 5.559v14.023h12.27V12.57h-7.01V5.56h-5.26zm7.012 0v5.258h5.259L166.03 5.56zm-5.259 3.505h1.753v1.753h-1.753V9.064zm0 3.506h1.753v1.753h-1.753V12.57zm0 3.506h7.012v1.753h-7.012v-1.753zM159.02 174.407v14.01h12.257v-7.006h-7.004v-7.004h-5.254zm7.004 0v5.253h5.253l-5.253-5.253z"/><text style="line-height:125%" x="258.453" y="206.555" font-weight="400" font-size="20" font-family="sans-serif" letter-spacing="0" word-spacing="0" transform="translate(-83.977 -17.786)"><tspan x="258.453" y="206.555">Notification</tspan></text><path d="M159.38 106.952a.347.347 0 0 0-.36.36v14.416c0 .208.151.36.36.36h14.416a.347.347 0 0 0 .36-.36v-14.417a.347.347 0 0 0-.36-.359H159.38zm1.53 3.78h11.337v5.668h-1.89l-1.89 1.89h-3.778l-1.89-1.89h-1.89v-5.669z"/><text style="line-height:125%" x="262.229" y="139.866" font-weight="400" font-size="20" font-family="sans-serif" letter-spacing="0" word-spacing="0" transform="translate(-83.977 -17.786)"><tspan x="262.229" y="139.866">Inbox</tspan></text><text style="line-height:100%" x="169.53" y="51.907" font-weight="400" font-size="20" font-family="sans-serif" letter-spacing="0" word-spacing="0" transform="translate(-83.977 -17.786)"><tspan x="169.53" y="51.907" style="line-height:100%;-inkscape-font-specification:monospace" font-size="12.5" font-family="monospace">GET</tspan></text><path d="M80.094 56.246c26.774-25.646 73.45-42.406 73.45-42.406M317.544 56.681c-26.774-25.646-73.449-42.406-73.449-42.406M81.48 66.868c26.774 25.646 73.45 42.406 73.45 42.406" fill="none" stroke="#000" stroke-width=".797"/><text style="line-height:125%" x="389.189" y="111.999" font-weight="400" font-size="20" font-family="sans-serif" letter-spacing="0" word-spacing="0" transform="translate(-83.977 -17.786)"><tspan x="389.189" y="111.999" style="-inkscape-font-specification:monospace" font-size="12.5" font-family="monospace">GET</tspan></text><path d="M317.898 70.757c-26.774 25.646-73.45 42.406-73.45 42.406" fill="none" stroke="#000" stroke-width=".797"/><path d="M334.61 79.188c-15.293 56.301-41.953 93.091-41.953 93.091" fill="none" stroke="#000" stroke-width=".893"/><path style="isolation:auto;mix-blend-mode:normal" color="#000" overflow="visible" fill="none" stroke="#000" stroke-width=".846" stroke-dasharray="3.38551976,6.77103951" d="M151.06 98.447h141V194.5h-141z"/><path d="M164.06 24.117c-7.82 39.778 0 76.156 0 76.156" fill="none" stroke="#000" stroke-width=".962"/><path d="M149.901 17.027l5.702-2.075-5.702-2.076zM161.574 98.406l3.523 4.94.476-6.05zM243.698 111.024l-4.06 4.508 6.008-.843zM150.198 110.4l6.065.165-4.54-4.026zM245.493 16.762l-5.702-2.075 5.702-2.076zM291.493 170.237l-3.066 5.236 5.715-2.04z" fill-rule="evenodd" stroke="#000" stroke-width="1.256"/><path d="M164.827 124.083c-4.73 24.06 0 46.063 0 46.063" fill="none" stroke="#000" stroke-width=".582"/><path d="M161.767 165.375l3.524 4.94.476-6.05z" fill-rule="evenodd" stroke="#000" stroke-width="1.256"/><text style="line-height:100%" x="188.777" y="68.259" font-weight="400" font-size="20" font-family="sans-serif" letter-spacing="0" word-spacing="0" transform="translate(-83.977 -17.786)"><tspan x="188.777" y="68.259" style="line-height:100%;-inkscape-font-specification:monospace" font-size="12.5" font-family="monospace">HEAD</tspan></text><text style="line-height:100%" x="374.888" y="52.671" font-weight="400" font-size="20" font-family="sans-serif" letter-spacing="0" word-spacing="0" transform="translate(-83.977 -17.786)"><tspan x="374.888" y="52.671" style="line-height:100%;-inkscape-font-specification:monospace" font-size="12.5" font-family="monospace">GET</tspan></text><text style="line-height:100%" x="348.134" y="68.273" font-weight="400" font-size="20" font-family="sans-serif" letter-spacing="0" word-spacing="0" transform="translate(-83.977 -17.786)"><tspan x="348.134" y="68.273" style="line-height:100%;-inkscape-font-specification:monospace" font-size="12.5" font-family="monospace">HEAD</tspan></text></svg>