<svg viewBox="0 0 420 200" version="1.1" prefix="rdf: http://www.w3.org/1999/02/22-rdf-syntax-ns# rdfs: http://www.w3.org/2000/01/rdf-schema# xsd: http://www.w3.org/2001/XMLSchema# schema: https://schema.org/" xmlns="http://www.w3.org/2000/svg" xml:lang="en" about="" rel="schema:isPartOf" resource="https://www.w3.org/TR/ldn/"><g about="" rel="schema:hasPart" typeof="schema:ImageObject"><metadata about=""><tspan rel="schema:license" resource="https://creativecommons.org/licenses/by/4.0/"></tspan><tspan rel="schema:creator" resource="http://csarven.ca/#i"></tspan></metadata><title about="" property="schema:name">Linked Data Notifications</title><style>.relation{font-size:12px;font-family:monospace;}.predicate{font-style:italic;}.actor{font-size:20px;font-family:sans-serif;}.legend{font-size:8px;font-family:sans-serif;}</style><a about="#target" property="schema:name" rel="rdfs:isDefinedBy" resource="https://www.w3.org/TR/ldn/#discovery" href="https://www.w3.org/TR/ldn/#discovery" target="_top"><text class="actor" x="170" y="19">Target</text></a><a about="#sender" property="schema:name" rel="rdfs:isDefinedBy" resource="https://www.w3.org/TR/ldn/#sender" href="https://www.w3.org/TR/ldn/#sender" target="_top"><text class="actor" x="3" y="68">Sender</text></a><a about="#consumer" property="schema:name" rel="rdfs:isDefinedBy" resource="https://www.w3.org/TR/ldn/#consumer" href="https://www.w3.org/TR/ldn/#consumer" target="_top"><text class="actor" x="316" y="70">Consumer</text></a><a about="#receiver" property="schema:name" rel="rdfs:isDefinedBy" resource="https://www.w3.org/TR/ldn/#receiver" href="https://www.w3.org/TR/ldn/#receiver" target="_top"><text class="actor" x="57" y="153">Receiver</text></a><a about="#get" property="schema:name" rel="rdfs:isDefinedBy" resource="https://tools.ietf.org/html/rfc7231#section-4.3.1" href="https://tools.ietf.org/html/rfc7231#section-4.3.1" target="_top"><text class="relation http" x="81" y="34">GET</text></a><a about="#head" property="schema:name" rel="rdfs:isDefinedBy" resource="https://tools.ietf.org/html/rfc7231#section-4.3.2" href="https://tools.ietf.org/html/rfc7231#section-4.3.2" target="_top"><text class="relation http" x="100" y="50">HEAD</text></a><a href="https://tools.ietf.org/html/rfc7231#section-4.3.1" target="_top"><text class="relation http" x="286" y="34">GET</text></a><a href="https://tools.ietf.org/html/rfc7231#section-4.3.2" target="_top"><text class="relation http" x="259" y="50">HEAD</text></a><a about="#post" property="schema:name" rel="rdfs:isDefinedBy" resource="https://tools.ietf.org/html/rfc7231#section-4.3.3" href="https://tools.ietf.org/html/rfc7231#section-4.3.3" target="_top"><text class="relation http" x="62" y="92">POST</text></a><a href="https://tools.ietf.org/html/rfc7231#section-4.3.1" target="_top"><text class="relation http" x="300" y="94">GET</text></a><a about="#ldp-inbox" property="schema:name" rel="rdfs:isDefinedBy" resource="https://www.w3.org/ns/ldp#inbox" href="https://www.w3.org/ns/ldp#inbox" target="_top"><text class="relation predicate" x="166" y="67">ldp:inbox</text></a><a about="#ldp-contains" property="schema:name" rel="rdfs:isDefinedBy" resource="https://www.w3.org/ns/ldp#contains" href="https://www.w3.org/ns/ldp#contains" target="_top"><text class="relation predicate" x="166" y="153">ldp:contains</text></a><a about="#discovery" property="schema:name" rel="rdfs:isDefinedBy" resource="https://www.w3.org/TR/ldn/#discovery" href="https://www.w3.org/TR/ldn/#discovery" target="_top"><text class="actor" x="175" y="122">Inbox</text></a><a about="#notification" property="schema:name" rel="rdfs:isDefinedBy" resource="https://www.w3.org/TR/ldn/#introduction" href="https://www.w3.org/TR/ldn/#introduction" target="_top"><text class="actor" x="171" y="188">Notification</text></a><text class="legend" x="310" y="182">Linked Data Notifications</text><a href="https://www.w3.org/TR/ldn/"><text class="legend" x="310" y="192">https://www.w3.org/TR/ldn/</text></a><path d="M154.018 5.559v14.023h12.27V12.57h-7.01V5.56h-5.26zm7.012 0v5.258h5.259L166.03 5.56zm-5.259 3.505h1.753v1.753h-1.753V9.064zm0 3.506h1.753v1.753h-1.753V12.57zm0 3.506h7.012v1.753h-7.012v-1.753z"/><path d="m155.03056,108.76175 0,1.51758 12.14062,0 0,-1.51758 -12.14062,0 z m 0,3.03516 0,8.9628 c 0,0.0911 0.0516,0.14266 0.14266,0.14266 l 11.85682,0 c 0.0911,0 0.14265,-0.0516 0.14265,-0.14266 l 0,-8.9628 -4.50568,0 0,1.56461 -3.0822,0 0,-1.56461 -4.55274,0 z"/><path d="M154.02 174.407v14.01h12.257v-7.006h-7.004v-7.004h-5.254zm7.004 0v5.253h5.253l-5.253-5.253z"/><path d="M75.094 56.246c26.774-25.646 73.45-42.406 73.45-42.406M312.544 56.681c-26.774-25.646-73.449-42.406-73.449-42.406M76.48 66.868c26.774 25.646 73.45 42.406 73.45 42.406" fill="none" stroke="#000" stroke-width="1"/><path d="M312.898 70.757c-26.774 25.646-73.45 42.406-73.45 42.406" fill="none" stroke="#000" stroke-width="1"/><path d="M329.61 79.188c-15.293 56.301-41.953 93.091-41.953 93.091" fill="none" stroke="#000" stroke-width="1"/><path fill="none" stroke="#000" stroke-width="1" stroke-dasharray="3,6" d="M146.06 98.447h141V194.5h-141z"/><path d="M159.06 24.117c-7.82 39.778 0 76.156 0 76.156" fill="none" stroke="#000" stroke-width="1"/><path d="M144.901 17.027l5.702-2.075-5.702-2.076zM156.574 98.406l3.523 4.94.476-6.05zM238.698 111.024l-4.06 4.508 6.008-.843zM145.198 110.4l6.065.165-4.54-4.026zM240.493 16.762l-5.702-2.075 5.702-2.076zM286.493 170.237l-3.066 5.236 5.715-2.04zM156.767 165.375l3.524 4.94.476-6.05z" stroke="#000" stroke-width="1"/><path d="M160 124c-4.73 24.06 0 46.063 0 46.063" fill="none" stroke="#000" stroke-width="1"/></g></svg>