<svg viewBox="0 0 425 200" version="1.1" xmlns="http://www.w3.org/2000/svg"><title>Linked Data Notifications</title><style>.relation{font-size:12px;font-family:monospace;}.predicate{font-style:italic;}.actor{font-size:20px;font-family:sans-serif;}</style><text class="actor" transform="translate(-84 -18)" x="257.261" y="37.366"><tspan x="257.261" y="37.366">Target</tspan></text><text class="actor" transform="translate(-84 -18)" x="87.658" y="85.842"><tspan x="87.658" y="85.842">Sender</tspan></text><text class="actor" transform="translate(-84 -18)" x="404.192" y="85.814"><tspan x="404.192" y="85.814">Consumer</tspan></text><text class="actor" transform="translate(-84 -18)" x="145.615" y="171.327"><tspan x="145.615" y="171.327">Receiver</tspan></text><text transform="translate(-84 -18)" x="169.53" y="51.907"><tspan class="relation http" x="169.53" y="51.907">GET</tspan></text><text transform="translate(-84 -18)" x="188.777" y="68.259"><tspan class="relation http" x="188.777" y="68.259">HEAD</tspan></text><text transform="translate(-84 -18)" x="374.888" y="52.671"><tspan class="relation http" x="374.888" y="52.671">GET</tspan></text><text transform="translate(-84 -18)" x="348.134" y="68.273"><tspan class="relation http" x="348.134" y="68.273">HEAD</tspan></text><text transform="translate(-84 -18)" x="151.081" y="110.38"><tspan class="relation http" x="151.081" y="110.38">POST</tspan></text><text transform="translate(-84 -18)" x="389.189" y="111.999"><tspan class="relation http" x="389.189" y="111.999">GET</tspan></text><text class="actor" transform="translate(-84 -18)" x="255" y="83"><tspan x="255" y="83" class="relation predicate">ldp:inbox</tspan></text><text class="actor" transform="translate(-84 -18)" x="255" y="171"><tspan x="255" y="171" class="relation predicate">ldp:contains</tspan></text><path d="M159.38 106.952a.347.347 0 0 0-.36.36v14.416c0 .208.151.36.36.36h14.416a.347.347 0 0 0 .36-.36v-14.417a.347.347 0 0 0-.36-.359H159.38zm1.53 3.78h11.337v5.668h-1.89l-1.89 1.89h-3.778l-1.89-1.89h-1.89v-5.669z"/><text class="actor" transform="translate(-84 -18)" x="262.229" y="139.866"><tspan x="262.229" y="139.866">Inbox</tspan></text><path d="M159.018 5.559v14.023h12.27V12.57h-7.01V5.56h-5.26zm7.012 0v5.258h5.259L166.03 5.56zm-5.259 3.505h1.753v1.753h-1.753V9.064zm0 3.506h1.753v1.753h-1.753V12.57zm0 3.506h7.012v1.753h-7.012v-1.753zM159.02 174.407v14.01h12.257v-7.006h-7.004v-7.004h-5.254zm7.004 0v5.253h5.253l-5.253-5.253z"/><text class="actor" transform="translate(-84 -18)" x="258.453" y="206.555"><tspan x="258.453" y="206.555">Notification</tspan></text><path d="M80.094 56.246c26.774-25.646 73.45-42.406 73.45-42.406M317.544 56.681c-26.774-25.646-73.449-42.406-73.449-42.406M81.48 66.868c26.774 25.646 73.45 42.406 73.45 42.406" fill="none" stroke="#000" stroke-width="1"/><path d="M317.898 70.757c-26.774 25.646-73.45 42.406-73.45 42.406" fill="none" stroke="#000" stroke-width="1"/><path d="M334.61 79.188c-15.293 56.301-41.953 93.091-41.953 93.091" fill="none" stroke="#000" stroke-width="1"/><path fill="none" stroke="#000" stroke-width="1" stroke-dasharray="3,6" d="M151.06 98.447h141V194.5h-141z"/><path d="M164.06 24.117c-7.82 39.778 0 76.156 0 76.156" fill="none" stroke="#000" stroke-width="1"/><path d="M149.901 17.027l5.702-2.075-5.702-2.076zM161.574 98.406l3.523 4.94.476-6.05zM243.698 111.024l-4.06 4.508 6.008-.843zM150.198 110.4l6.065.165-4.54-4.026zM245.493 16.762l-5.702-2.075 5.702-2.076zM291.493 170.237l-3.066 5.236 5.715-2.04z" stroke="#000" stroke-width="1"/><path d="M164.827 124.083c-4.73 24.06 0 46.063 0 46.063" fill="none" stroke="#000" stroke-width="1"/><path d="M161.767 165.375l3.524 4.94.476-6.05z" stroke="#000" stroke-width="1"/></svg>